<svg xmlns="http://www.w3.org/2000/svg" xmlns:xlink="http://www.w3.org/1999/xlink" width="400" zoomAndPan="magnify" viewBox="0 0 300 299.999988" height="400" preserveAspectRatio="xMidYMid meet" version="1.0"><defs><filter x="0%" y="0%" width="100%" height="100%" id="07beb62a40"><feColorMatrix values="0 0 0 0 1 0 0 0 0 1 0 0 0 0 1 0 0 0 1 0" color-interpolation-filters="sRGB"/></filter><g/><clipPath id="f6085e2825"><path d="M 0 0 L 300 0 L 300 300 L 0 300 Z M 0 0 " clip-rule="nonzero"/></clipPath><linearGradient x1="0.678869" gradientTransform="matrix(1.34127, 0, 0, 1.342001, -0.910541, -13.05328)" y1="120.5" x2="224.347446" gradientUnits="userSpaceOnUse" y2="120.5" id="a0224c1b13"><stop stop-opacity="1" stop-color="rgb(100%, 86.967468%, 34.884644%)" offset="0"/><stop stop-opacity="1" stop-color="rgb(100%, 86.84845%, 34.866333%)" offset="0.0078125"/><stop stop-opacity="1" stop-color="rgb(100%, 86.613464%, 34.829712%)" offset="0.015625"/><stop stop-opacity="1" stop-color="rgb(100%, 86.376953%, 34.793091%)" offset="0.0234375"/><stop stop-opacity="1" stop-color="rgb(100%, 86.140442%, 34.75647%)" offset="0.03125"/><stop stop-opacity="1" stop-color="rgb(100%, 85.903931%, 34.719849%)" offset="0.0390625"/><stop stop-opacity="1" stop-color="rgb(100%, 85.668945%, 34.683228%)" offset="0.046875"/><stop stop-opacity="1" stop-color="rgb(100%, 85.432434%, 34.646606%)" offset="0.0546875"/><stop stop-opacity="1" stop-color="rgb(100%, 85.195923%, 34.609985%)" offset="0.0625"/><stop stop-opacity="1" stop-color="rgb(100%, 84.959412%, 34.571838%)" offset="0.0703125"/><stop stop-opacity="1" stop-color="rgb(100%, 84.724426%, 34.535217%)" offset="0.078125"/><stop stop-opacity="1" stop-color="rgb(100%, 84.487915%, 34.498596%)" offset="0.0859375"/><stop stop-opacity="1" stop-color="rgb(100%, 84.251404%, 34.461975%)" offset="0.09375"/><stop stop-opacity="1" stop-color="rgb(100%, 84.016418%, 34.425354%)" offset="0.101562"/><stop stop-opacity="1" stop-color="rgb(100%, 83.779907%, 34.388733%)" offset="0.109375"/><stop stop-opacity="1" stop-color="rgb(100%, 83.543396%, 34.352112%)" offset="0.117188"/><stop stop-opacity="1" stop-color="rgb(100%, 83.306885%, 34.315491%)" offset="0.125"/><stop stop-opacity="1" stop-color="rgb(100%, 83.071899%, 34.27887%)" offset="0.132812"/><stop stop-opacity="1" stop-color="rgb(100%, 82.835388%, 34.242249%)" offset="0.140625"/><stop stop-opacity="1" stop-color="rgb(100%, 82.598877%, 34.205627%)" offset="0.148437"/><stop stop-opacity="1" stop-color="rgb(100%, 82.362366%, 34.169006%)" offset="0.15625"/><stop stop-opacity="1" stop-color="rgb(100%, 82.12738%, 34.132385%)" offset="0.164062"/><stop stop-opacity="1" stop-color="rgb(100%, 81.890869%, 34.094238%)" offset="0.171875"/><stop stop-opacity="1" stop-color="rgb(100%, 81.654358%, 34.057617%)" offset="0.179688"/><stop stop-opacity="1" stop-color="rgb(100%, 81.419373%, 34.020996%)" offset="0.1875"/><stop stop-opacity="1" stop-color="rgb(100%, 81.182861%, 33.984375%)" offset="0.195312"/><stop stop-opacity="1" stop-color="rgb(100%, 80.94635%, 33.947754%)" offset="0.203125"/><stop stop-opacity="1" stop-color="rgb(100%, 80.709839%, 33.911133%)" offset="0.210937"/><stop stop-opacity="1" stop-color="rgb(100%, 80.474854%, 33.874512%)" offset="0.21875"/><stop stop-opacity="1" stop-color="rgb(100%, 80.238342%, 33.837891%)" offset="0.226562"/><stop stop-opacity="1" stop-color="rgb(100%, 80.001831%, 33.80127%)" offset="0.234375"/><stop stop-opacity="1" stop-color="rgb(100%, 79.76532%, 33.764648%)" offset="0.242187"/><stop stop-opacity="1" stop-color="rgb(100%, 79.530334%, 33.728027%)" offset="0.25"/><stop stop-opacity="1" stop-color="rgb(100%, 79.293823%, 33.691406%)" offset="0.257812"/><stop stop-opacity="1" stop-color="rgb(100%, 79.057312%, 33.653259%)" offset="0.265625"/><stop stop-opacity="1" stop-color="rgb(100%, 78.820801%, 33.616638%)" offset="0.273437"/><stop stop-opacity="1" stop-color="rgb(100%, 78.585815%, 33.580017%)" offset="0.28125"/><stop stop-opacity="1" stop-color="rgb(100%, 78.349304%, 33.543396%)" offset="0.289062"/><stop stop-opacity="1" stop-color="rgb(100%, 78.112793%, 33.506775%)" offset="0.296875"/><stop stop-opacity="1" stop-color="rgb(100%, 77.877808%, 33.470154%)" offset="0.304687"/><stop stop-opacity="1" stop-color="rgb(100%, 77.641296%, 33.433533%)" offset="0.3125"/><stop stop-opacity="1" stop-color="rgb(100%, 77.404785%, 33.396912%)" offset="0.320312"/><stop stop-opacity="1" stop-color="rgb(100%, 77.168274%, 33.360291%)" offset="0.328125"/><stop stop-opacity="1" stop-color="rgb(100%, 76.933289%, 33.323669%)" offset="0.335937"/><stop stop-opacity="1" stop-color="rgb(100%, 76.696777%, 33.287048%)" offset="0.34375"/><stop stop-opacity="1" stop-color="rgb(100%, 76.460266%, 33.250427%)" offset="0.351562"/><stop stop-opacity="1" stop-color="rgb(100%, 76.223755%, 33.213806%)" offset="0.359375"/><stop stop-opacity="1" stop-color="rgb(100%, 75.98877%, 33.175659%)" offset="0.367187"/><stop stop-opacity="1" stop-color="rgb(100%, 75.752258%, 33.139038%)" offset="0.375"/><stop stop-opacity="1" stop-color="rgb(100%, 75.515747%, 33.102417%)" offset="0.382812"/><stop stop-opacity="1" stop-color="rgb(100%, 75.280762%, 33.065796%)" offset="0.390625"/><stop stop-opacity="1" stop-color="rgb(100%, 75.04425%, 33.029175%)" offset="0.398437"/><stop stop-opacity="1" stop-color="rgb(100%, 74.807739%, 32.992554%)" offset="0.40625"/><stop stop-opacity="1" stop-color="rgb(100%, 74.571228%, 32.955933%)" offset="0.414062"/><stop stop-opacity="1" stop-color="rgb(100%, 74.336243%, 32.919312%)" offset="0.421875"/><stop stop-opacity="1" stop-color="rgb(100%, 74.099731%, 32.88269%)" offset="0.429687"/><stop stop-opacity="1" stop-color="rgb(100%, 73.86322%, 32.846069%)" offset="0.4375"/><stop stop-opacity="1" stop-color="rgb(100%, 73.626709%, 32.809448%)" offset="0.445312"/><stop stop-opacity="1" stop-color="rgb(100%, 73.391724%, 32.772827%)" offset="0.453125"/><stop stop-opacity="1" stop-color="rgb(100%, 73.155212%, 32.73468%)" offset="0.460937"/><stop stop-opacity="1" stop-color="rgb(100%, 72.918701%, 32.698059%)" offset="0.46875"/><stop stop-opacity="1" stop-color="rgb(100%, 72.683716%, 32.661438%)" offset="0.476562"/><stop stop-opacity="1" stop-color="rgb(100%, 72.447205%, 32.624817%)" offset="0.484375"/><stop stop-opacity="1" stop-color="rgb(100%, 72.210693%, 32.588196%)" offset="0.492187"/><stop stop-opacity="1" stop-color="rgb(100%, 71.974182%, 32.551575%)" offset="0.5"/><stop stop-opacity="1" stop-color="rgb(100%, 71.739197%, 32.514954%)" offset="0.507812"/><stop stop-opacity="1" stop-color="rgb(100%, 71.502686%, 32.478333%)" offset="0.515625"/><stop stop-opacity="1" stop-color="rgb(100%, 71.266174%, 32.441711%)" offset="0.523438"/><stop stop-opacity="1" stop-color="rgb(100%, 71.029663%, 32.40509%)" offset="0.53125"/><stop stop-opacity="1" stop-color="rgb(100%, 70.794678%, 32.368469%)" offset="0.539062"/><stop stop-opacity="1" stop-color="rgb(100%, 70.558167%, 32.331848%)" offset="0.546875"/><stop stop-opacity="1" stop-color="rgb(100%, 70.321655%, 32.293701%)" offset="0.554687"/><stop stop-opacity="1" stop-color="rgb(100%, 70.08667%, 32.25708%)" offset="0.5625"/><stop stop-opacity="1" stop-color="rgb(100%, 69.850159%, 32.220459%)" offset="0.570312"/><stop stop-opacity="1" stop-color="rgb(100%, 69.613647%, 32.183838%)" offset="0.578125"/><stop stop-opacity="1" stop-color="rgb(100%, 69.377136%, 32.147217%)" offset="0.585937"/><stop stop-opacity="1" stop-color="rgb(100%, 69.142151%, 32.110596%)" offset="0.59375"/><stop stop-opacity="1" stop-color="rgb(100%, 68.90564%, 32.073975%)" offset="0.601562"/><stop stop-opacity="1" stop-color="rgb(100%, 68.669128%, 32.037354%)" offset="0.609375"/><stop stop-opacity="1" stop-color="rgb(100%, 68.432617%, 32.000732%)" offset="0.617187"/><stop stop-opacity="1" stop-color="rgb(100%, 68.197632%, 31.964111%)" offset="0.625"/><stop stop-opacity="1" stop-color="rgb(100%, 67.961121%, 31.92749%)" offset="0.632812"/><stop stop-opacity="1" stop-color="rgb(100%, 67.724609%, 31.890869%)" offset="0.640625"/><stop stop-opacity="1" stop-color="rgb(100%, 67.488098%, 31.854248%)" offset="0.648437"/><stop stop-opacity="1" stop-color="rgb(100%, 67.253113%, 31.816101%)" offset="0.65625"/><stop stop-opacity="1" stop-color="rgb(100%, 67.016602%, 31.77948%)" offset="0.664062"/><stop stop-opacity="1" stop-color="rgb(100%, 66.78009%, 31.742859%)" offset="0.671875"/><stop stop-opacity="1" stop-color="rgb(100%, 66.545105%, 31.706238%)" offset="0.679687"/><stop stop-opacity="1" stop-color="rgb(100%, 66.308594%, 31.669617%)" offset="0.6875"/><stop stop-opacity="1" stop-color="rgb(100%, 66.072083%, 31.632996%)" offset="0.695312"/><stop stop-opacity="1" stop-color="rgb(100%, 65.835571%, 31.596375%)" offset="0.703125"/><stop stop-opacity="1" stop-color="rgb(100%, 65.600586%, 31.559753%)" offset="0.710938"/><stop stop-opacity="1" stop-color="rgb(100%, 65.364075%, 31.523132%)" offset="0.71875"/><stop stop-opacity="1" stop-color="rgb(100%, 65.127563%, 31.486511%)" offset="0.726562"/><stop stop-opacity="1" stop-color="rgb(100%, 64.891052%, 31.44989%)" offset="0.734375"/><stop stop-opacity="1" stop-color="rgb(100%, 64.656067%, 31.413269%)" offset="0.742188"/><stop stop-opacity="1" stop-color="rgb(100%, 64.419556%, 31.375122%)" offset="0.75"/><stop stop-opacity="1" stop-color="rgb(100%, 64.183044%, 31.338501%)" offset="0.757812"/><stop stop-opacity="1" stop-color="rgb(100%, 63.948059%, 31.30188%)" offset="0.765625"/><stop stop-opacity="1" stop-color="rgb(100%, 63.711548%, 31.265259%)" offset="0.773437"/><stop stop-opacity="1" stop-color="rgb(100%, 63.475037%, 31.228638%)" offset="0.78125"/><stop stop-opacity="1" stop-color="rgb(100%, 63.238525%, 31.192017%)" offset="0.789062"/><stop stop-opacity="1" stop-color="rgb(100%, 63.00354%, 31.155396%)" offset="0.796875"/><stop stop-opacity="1" stop-color="rgb(100%, 62.767029%, 31.118774%)" offset="0.804687"/><stop stop-opacity="1" stop-color="rgb(100%, 62.530518%, 31.082153%)" offset="0.8125"/><stop stop-opacity="1" stop-color="rgb(100%, 62.294006%, 31.045532%)" offset="0.820312"/><stop stop-opacity="1" stop-color="rgb(100%, 62.059021%, 31.008911%)" offset="0.828125"/><stop stop-opacity="1" stop-color="rgb(100%, 61.82251%, 30.97229%)" offset="0.835937"/><stop stop-opacity="1" stop-color="rgb(100%, 61.585999%, 30.935669%)" offset="0.84375"/><stop stop-opacity="1" stop-color="rgb(100%, 61.351013%, 30.897522%)" offset="0.851562"/><stop stop-opacity="1" stop-color="rgb(100%, 61.114502%, 30.860901%)" offset="0.859375"/><stop stop-opacity="1" stop-color="rgb(100%, 60.877991%, 30.82428%)" offset="0.867187"/><stop stop-opacity="1" stop-color="rgb(100%, 60.641479%, 30.787659%)" offset="0.875"/><stop stop-opacity="1" stop-color="rgb(100%, 60.406494%, 30.751038%)" offset="0.882812"/><stop stop-opacity="1" stop-color="rgb(100%, 60.169983%, 30.714417%)" offset="0.890625"/><stop stop-opacity="1" stop-color="rgb(100%, 59.933472%, 30.677795%)" offset="0.898438"/><stop stop-opacity="1" stop-color="rgb(100%, 59.69696%, 30.641174%)" offset="0.90625"/><stop stop-opacity="1" stop-color="rgb(100%, 59.461975%, 30.604553%)" offset="0.914062"/><stop stop-opacity="1" stop-color="rgb(100%, 59.225464%, 30.567932%)" offset="0.921875"/><stop stop-opacity="1" stop-color="rgb(100%, 58.988953%, 30.531311%)" offset="0.929688"/><stop stop-opacity="1" stop-color="rgb(100%, 58.752441%, 30.49469%)" offset="0.9375"/><stop stop-opacity="1" stop-color="rgb(100%, 58.517456%, 30.456543%)" offset="0.945312"/><stop stop-opacity="1" stop-color="rgb(100%, 58.280945%, 30.419922%)" offset="0.953125"/><stop stop-opacity="1" stop-color="rgb(100%, 58.044434%, 30.383301%)" offset="0.960937"/><stop stop-opacity="1" stop-color="rgb(100%, 57.809448%, 30.34668%)" offset="0.96875"/><stop stop-opacity="1" stop-color="rgb(100%, 57.572937%, 30.310059%)" offset="0.976562"/><stop stop-opacity="1" stop-color="rgb(100%, 57.336426%, 30.273438%)" offset="0.984375"/><stop stop-opacity="1" stop-color="rgb(100%, 57.038879%, 30.226135%)" offset="1"/></linearGradient><clipPath id="72e76f70ad"><rect x="0" width="300" y="0" height="300"/></clipPath><clipPath id="15388aa15d"><rect x="0" width="300" y="0" height="300"/></clipPath><clipPath id="6ba536c172"><rect x="0" width="300" y="0" height="300"/></clipPath><mask id="e334a2ce70"><g filter="url(#07beb62a40)"><g transform="matrix(1, 0, 0, 1, 0, 0)"><g clip-path="url(#6ba536c172)"><g transform="matrix(1, 0, 0, 1, 0, 0)"><g clip-path="url(#15388aa15d)"><g fill="#000000" fill-opacity="1"><g transform="translate(0.000006, 231.870018)"><g><path d="M 120 -3.953125 C 114.875 -0.691406 109.289062 1.707031 103.25 3.25 C 97.207031 4.800781 91.082031 5.578125 84.875 5.578125 C 84.71875 5.578125 84.523438 5.578125 84.296875 5.578125 C 84.066406 5.578125 83.796875 5.578125 83.484375 5.578125 C 77.128906 5.578125 70.695312 4.609375 64.1875 2.671875 C 57.675781 0.734375 51.472656 -1.9375 45.578125 -5.34375 C 38.597656 -9.375 32.429688 -14.679688 27.078125 -21.265625 C 21.734375 -27.859375 17.515625 -34.878906 14.421875 -42.328125 C 12.398438 -47.441406 10.847656 -52.09375 9.765625 -56.28125 C 8.679688 -60.46875 8.0625 -64.265625 7.90625 -67.671875 C 7.75 -71.078125 7.628906 -73.863281 7.546875 -76.03125 C 7.472656 -78.207031 7.4375 -79.757812 7.4375 -80.6875 C 7.4375 -89.988281 8.367188 -99.0625 10.234375 -107.90625 C 11.941406 -116.425781 14.769531 -124.753906 18.71875 -132.890625 C 22.675781 -141.035156 27.753906 -148.207031 33.953125 -154.40625 C 41.546875 -161.851562 50.03125 -167.394531 59.40625 -171.03125 C 68.789062 -174.675781 78.445312 -176.5 88.375 -176.5 C 88.675781 -176.5 89.0625 -176.5 89.53125 -176.5 C 90 -176.5 90.382812 -176.5 90.6875 -176.5 C 95.65625 -176.34375 100.65625 -175.757812 105.6875 -174.75 C 110.726562 -173.75 115.34375 -171.929688 119.53125 -169.296875 C 126.8125 -165.265625 132.238281 -159.757812 135.8125 -152.78125 C 138.601562 -147.351562 140.226562 -142.625 140.6875 -138.59375 C 141.15625 -134.5625 141.390625 -131.617188 141.390625 -129.765625 C 141.390625 -125.265625 140.847656 -121.15625 139.765625 -117.4375 C 138.671875 -112.78125 136.578125 -108.4375 133.484375 -104.40625 C 131.773438 -102.394531 129.832031 -100.648438 127.65625 -99.171875 C 125.488281 -97.703125 123.085938 -96.582031 120.453125 -95.8125 C 118.128906 -95.1875 115.570312 -94.875 112.78125 -94.875 C 110.144531 -94.875 106.65625 -95.335938 102.3125 -96.265625 C 97.976562 -97.203125 93.875 -99.453125 90 -103.015625 C 88.445312 -104.410156 87.359375 -106.15625 86.734375 -108.25 C 86.117188 -110.34375 85.734375 -112.394531 85.578125 -114.40625 C 85.578125 -114.875 85.226562 -115.492188 84.53125 -116.265625 C 83.832031 -117.046875 83.328125 -117.59375 83.015625 -117.90625 C 82.242188 -118.675781 81.351562 -119.21875 80.34375 -119.53125 C 79.332031 -119.84375 78.441406 -120 77.671875 -120 C 77.515625 -120 77.359375 -120 77.203125 -120 C 77.046875 -120 76.816406 -120 76.515625 -120 C 72.941406 -120 69.914062 -118.679688 67.4375 -116.046875 C 64.957031 -113.410156 63.097656 -110.148438 61.859375 -106.265625 C 60.617188 -102.390625 59.84375 -98.671875 59.53125 -95.109375 C 59.375 -93.867188 59.253906 -92.628906 59.171875 -91.390625 C 59.097656 -90.148438 59.0625 -88.910156 59.0625 -87.671875 C 59.0625 -87.046875 59.097656 -85.765625 59.171875 -83.828125 C 59.253906 -81.890625 59.6875 -79.375 60.46875 -76.28125 C 61.238281 -73.644531 62.359375 -71.082031 63.828125 -68.59375 C 65.304688 -66.113281 67.128906 -64.101562 69.296875 -62.5625 C 71.460938 -61.3125 73.476562 -60.570312 75.34375 -60.34375 C 77.207031 -60.113281 78.601562 -60 79.53125 -60 C 80.300781 -60 81.113281 -60.035156 81.96875 -60.109375 C 82.820312 -60.191406 83.5625 -60.3125 84.1875 -60.46875 C 85.726562 -60.769531 87.195312 -61.113281 88.59375 -61.5 C 89.988281 -61.894531 91.382812 -62.398438 92.78125 -63.015625 L 95.109375 -63.953125 C 96.503906 -64.566406 97.898438 -65.109375 99.296875 -65.578125 C 100.691406 -66.046875 102.164062 -66.359375 103.71875 -66.515625 C 106.351562 -66.816406 109.066406 -66.96875 111.859375 -66.96875 C 114.648438 -66.96875 117.363281 -66.582031 120 -65.8125 C 124.957031 -64.101562 129.253906 -61.234375 132.890625 -57.203125 C 136.535156 -53.171875 138.976562 -48.597656 140.21875 -43.484375 C 140.6875 -41.472656 140.921875 -39.300781 140.921875 -36.96875 C 140.921875 -35.425781 140.726562 -33.296875 140.34375 -30.578125 C 139.957031 -27.867188 138.910156 -24.804688 137.203125 -21.390625 C 135.492188 -17.828125 133.085938 -14.570312 129.984375 -11.625 C 126.890625 -8.675781 123.5625 -6.117188 120 -3.953125 Z M 120 -3.953125 "/></g></g></g><g fill="#000000" fill-opacity="1"><g transform="translate(149.991774, 231.870018)"><g><path d="M 108.359375 -4.890625 C 103.554688 -1.941406 98.398438 0.265625 92.890625 1.734375 C 87.390625 3.210938 81.851562 4.03125 76.28125 4.1875 C 75.96875 4.1875 75.65625 4.1875 75.34375 4.1875 C 75.03125 4.1875 74.722656 4.1875 74.421875 4.1875 C 69.453125 4.1875 64.367188 3.644531 59.171875 2.5625 C 53.984375 1.476562 48.753906 -0.0703125 43.484375 -2.09375 C 38.523438 -3.800781 33.757812 -5.929688 29.1875 -8.484375 C 24.613281 -11.046875 20.617188 -14.1875 17.203125 -17.90625 C 12.710938 -22.863281 9.265625 -28.328125 6.859375 -34.296875 C 4.453125 -40.265625 3.25 -45.882812 3.25 -51.15625 C 3.25 -51.9375 3.25 -52.710938 3.25 -53.484375 C 3.25 -54.265625 3.328125 -54.960938 3.484375 -55.578125 C 4.109375 -60.535156 5.816406 -65.109375 8.609375 -69.296875 C 11.398438 -73.484375 14.882812 -76.894531 19.0625 -79.53125 C 23.25 -82.164062 27.828125 -83.5625 32.796875 -83.71875 C 32.941406 -83.71875 33.09375 -83.71875 33.25 -83.71875 C 33.40625 -83.71875 33.5625 -83.71875 33.71875 -83.71875 C 36.195312 -83.71875 38.710938 -83.097656 41.265625 -81.859375 C 43.828125 -80.617188 45.960938 -78.910156 47.671875 -76.734375 C 50.304688 -73.171875 52.4375 -69.332031 54.0625 -65.21875 C 55.695312 -61.113281 58.0625 -57.515625 61.15625 -54.421875 C 63.332031 -52.398438 65.890625 -51.390625 68.828125 -51.390625 C 69.765625 -51.390625 71.507812 -51.695312 74.0625 -52.3125 C 76.625 -52.9375 78.910156 -55.035156 80.921875 -58.609375 C 82.785156 -61.859375 84.066406 -65.378906 84.765625 -69.171875 C 85.460938 -72.972656 85.8125 -76.738281 85.8125 -80.46875 C 85.8125 -81.238281 85.847656 -82.050781 85.921875 -82.90625 C 86.003906 -83.757812 86.046875 -84.570312 86.046875 -85.34375 C 86.046875 -89.84375 85.65625 -94.6875 84.875 -99.875 C 84.101562 -105.070312 83.175781 -110.613281 82.09375 -116.5 C 79.300781 -116.039062 76.972656 -115.769531 75.109375 -115.6875 C 73.253906 -115.613281 71.859375 -115.578125 70.921875 -115.578125 C 69.992188 -115.578125 69.0625 -115.613281 68.125 -115.6875 C 67.195312 -115.769531 66.269531 -115.8125 65.34375 -115.8125 C 61.78125 -115.96875 58.097656 -116.429688 54.296875 -117.203125 C 50.503906 -117.972656 47.210938 -119.445312 44.421875 -121.625 C 41.785156 -123.789062 39.921875 -126.304688 38.828125 -129.171875 C 37.742188 -132.046875 37.160156 -134.53125 37.078125 -136.625 C 37.003906 -138.71875 36.96875 -139.6875 36.96875 -139.53125 C 36.96875 -142.625 37.429688 -145.800781 38.359375 -149.0625 C 39.296875 -152.320312 40.539062 -155.34375 42.09375 -158.125 C 45.5 -164.789062 51.234375 -168.976562 59.296875 -170.6875 C 60.847656 -171 63.519531 -171.347656 67.3125 -171.734375 C 71.113281 -172.117188 75.257812 -172.46875 79.75 -172.78125 C 84.25 -173.09375 88.359375 -173.328125 92.078125 -173.484375 C 95.804688 -173.640625 98.445312 -173.71875 100 -173.71875 C 101.550781 -173.71875 103.332031 -173.675781 105.34375 -173.59375 C 107.351562 -173.519531 109.054688 -173.40625 110.453125 -173.25 C 116.191406 -172.46875 120.84375 -170.0625 124.40625 -166.03125 C 128.4375 -161.539062 131.226562 -156.269531 132.78125 -150.21875 C 134.332031 -144.175781 135.570312 -138.207031 136.5 -132.3125 C 139.132812 -117.4375 140.53125 -102.632812 140.6875 -87.90625 C 140.6875 -86.820312 140.722656 -85.695312 140.796875 -84.53125 C 140.878906 -83.363281 140.921875 -82.160156 140.921875 -80.921875 C 140.921875 -76.273438 140.648438 -71.003906 140.109375 -65.109375 C 139.566406 -59.222656 138.363281 -52.867188 136.5 -46.046875 C 134.945312 -40.617188 132.890625 -35.269531 130.328125 -30 C 127.773438 -24.726562 124.640625 -19.921875 120.921875 -15.578125 C 117.515625 -11.546875 113.328125 -7.984375 108.359375 -4.890625 Z M 108.359375 -4.890625 "/></g></g></g></g></g></g></g></g></mask><clipPath id="5a21123325"><path d="M 0 0 L 300 0 L 300 300 L 0 300 Z M 0 0 " clip-rule="nonzero"/></clipPath><clipPath id="be18b5fe3c"><rect x="0" width="300" y="0" height="300"/></clipPath><clipPath id="ef1485d95b"><rect x="0" width="300" y="0" height="300"/></clipPath><clipPath id="7bcfccb6f4"><rect x="0" width="300" y="0" height="300"/></clipPath></defs><g transform="matrix(1, 0, 0, 1, 0, 0)"><g clip-path="url(#7bcfccb6f4)"><g transform="matrix(1, 0, 0, 1, 0, 0)"><g clip-path="url(#ef1485d95b)"><g mask="url(#e334a2ce70)"><g transform="matrix(1, 0, 0, 1, 0, 0)"><g clip-path="url(#be18b5fe3c)"><g clip-path="url(#5a21123325)"><rect x="-161.04" fill="url(#a0224c1b13)" width="622.08" height="622.079975" y="-161.039994"/></g></g></g></g></g></g></g></g></svg>