<svg xmlns="http://www.w3.org/2000/svg" xmlns:xlink="http://www.w3.org/1999/xlink" width="1027" zoomAndPan="magnify" viewBox="0 0 770.25 270.749997" height="361" preserveAspectRatio="xMidYMid meet" version="1.0"><defs><filter x="0%" y="0%" width="100%" height="100%" id="c634793646"><feColorMatrix values="0 0 0 0 1 0 0 0 0 1 0 0 0 0 1 0 0 0 1 0" color-interpolation-filters="sRGB"/></filter><g/><clipPath id="ea6bfe0fcb"><path d="M 0 0.0078125 L 769.5 0.0078125 L 769.5 270.492188 L 0 270.492188 Z M 0 0.0078125 " clip-rule="nonzero"/></clipPath><clipPath id="fb46e000c7"><path d="M 0 0.0078125 L 769.5 0.0078125 L 769.5 270.492188 L 0 270.492188 Z M 0 0.0078125 " clip-rule="nonzero"/></clipPath><clipPath id="a77d844092"><path d="M 0 0.0078125 L 769.5 0.0078125 L 769.5 270.492188 L 0 270.492188 Z M 0 0.0078125 " clip-rule="nonzero"/></clipPath><clipPath id="7e571941a8"><path d="M 0 0.0078125 L 769.5 0.0078125 L 769.5 270.492188 L 0 270.492188 Z M 0 0.0078125 " clip-rule="nonzero"/></clipPath><linearGradient x1="0.391747" gradientTransform="matrix(0.760871, 0, 0, 0.760631, -0.298069, 42.833332)" y1="120.5" x2="1011.733427" gradientUnits="userSpaceOnUse" y2="120.5" id="9266cc00f4"><stop stop-opacity="1" stop-color="rgb(100%, 87.04834%, 34.896851%)" offset="0"/><stop stop-opacity="1" stop-color="rgb(100%, 86.929321%, 34.87854%)" offset="0.0078125"/><stop stop-opacity="1" stop-color="rgb(100%, 86.694336%, 34.841919%)" offset="0.015625"/><stop stop-opacity="1" stop-color="rgb(100%, 86.457825%, 34.805298%)" offset="0.0234375"/><stop stop-opacity="1" stop-color="rgb(100%, 86.221313%, 34.768677%)" offset="0.03125"/><stop stop-opacity="1" stop-color="rgb(100%, 85.986328%, 34.732056%)" offset="0.0390625"/><stop stop-opacity="1" stop-color="rgb(100%, 85.749817%, 34.695435%)" offset="0.046875"/><stop stop-opacity="1" stop-color="rgb(100%, 85.514832%, 34.658813%)" offset="0.0546875"/><stop stop-opacity="1" stop-color="rgb(100%, 85.27832%, 34.622192%)" offset="0.0625"/><stop stop-opacity="1" stop-color="rgb(100%, 85.041809%, 34.585571%)" offset="0.0703125"/><stop stop-opacity="1" stop-color="rgb(100%, 84.806824%, 34.54895%)" offset="0.078125"/><stop stop-opacity="1" stop-color="rgb(100%, 84.570312%, 34.512329%)" offset="0.0859375"/><stop stop-opacity="1" stop-color="rgb(100%, 84.335327%, 34.475708%)" offset="0.09375"/><stop stop-opacity="1" stop-color="rgb(100%, 84.098816%, 34.439087%)" offset="0.101562"/><stop stop-opacity="1" stop-color="rgb(100%, 83.862305%, 34.402466%)" offset="0.109375"/><stop stop-opacity="1" stop-color="rgb(100%, 83.627319%, 34.365845%)" offset="0.117188"/><stop stop-opacity="1" stop-color="rgb(100%, 83.390808%, 34.327698%)" offset="0.125"/><stop stop-opacity="1" stop-color="rgb(100%, 83.155823%, 34.291077%)" offset="0.132812"/><stop stop-opacity="1" stop-color="rgb(100%, 82.919312%, 34.254456%)" offset="0.140625"/><stop stop-opacity="1" stop-color="rgb(100%, 82.6828%, 34.217834%)" offset="0.148437"/><stop stop-opacity="1" stop-color="rgb(100%, 82.447815%, 34.181213%)" offset="0.15625"/><stop stop-opacity="1" stop-color="rgb(100%, 82.211304%, 34.144592%)" offset="0.164062"/><stop stop-opacity="1" stop-color="rgb(100%, 81.976318%, 34.107971%)" offset="0.171875"/><stop stop-opacity="1" stop-color="rgb(100%, 81.739807%, 34.07135%)" offset="0.179688"/><stop stop-opacity="1" stop-color="rgb(100%, 81.504822%, 34.034729%)" offset="0.1875"/><stop stop-opacity="1" stop-color="rgb(100%, 81.268311%, 33.998108%)" offset="0.195312"/><stop stop-opacity="1" stop-color="rgb(100%, 81.031799%, 33.961487%)" offset="0.203125"/><stop stop-opacity="1" stop-color="rgb(100%, 80.796814%, 33.924866%)" offset="0.210938"/><stop stop-opacity="1" stop-color="rgb(100%, 80.560303%, 33.888245%)" offset="0.21875"/><stop stop-opacity="1" stop-color="rgb(100%, 80.325317%, 33.851624%)" offset="0.226562"/><stop stop-opacity="1" stop-color="rgb(100%, 80.088806%, 33.815002%)" offset="0.234375"/><stop stop-opacity="1" stop-color="rgb(100%, 79.852295%, 33.778381%)" offset="0.242187"/><stop stop-opacity="1" stop-color="rgb(100%, 79.61731%, 33.74176%)" offset="0.25"/><stop stop-opacity="1" stop-color="rgb(100%, 79.380798%, 33.703613%)" offset="0.257813"/><stop stop-opacity="1" stop-color="rgb(100%, 79.145813%, 33.666992%)" offset="0.265625"/><stop stop-opacity="1" stop-color="rgb(100%, 78.909302%, 33.630371%)" offset="0.273438"/><stop stop-opacity="1" stop-color="rgb(100%, 78.672791%, 33.59375%)" offset="0.28125"/><stop stop-opacity="1" stop-color="rgb(100%, 78.437805%, 33.557129%)" offset="0.289062"/><stop stop-opacity="1" stop-color="rgb(100%, 78.201294%, 33.520508%)" offset="0.296875"/><stop stop-opacity="1" stop-color="rgb(100%, 77.966309%, 33.483887%)" offset="0.304688"/><stop stop-opacity="1" stop-color="rgb(100%, 77.729797%, 33.447266%)" offset="0.3125"/><stop stop-opacity="1" stop-color="rgb(100%, 77.493286%, 33.410645%)" offset="0.320312"/><stop stop-opacity="1" stop-color="rgb(100%, 77.258301%, 33.374023%)" offset="0.328125"/><stop stop-opacity="1" stop-color="rgb(100%, 77.02179%, 33.337402%)" offset="0.335938"/><stop stop-opacity="1" stop-color="rgb(100%, 76.786804%, 33.300781%)" offset="0.34375"/><stop stop-opacity="1" stop-color="rgb(100%, 76.550293%, 33.26416%)" offset="0.351563"/><stop stop-opacity="1" stop-color="rgb(100%, 76.313782%, 33.227539%)" offset="0.359375"/><stop stop-opacity="1" stop-color="rgb(100%, 76.078796%, 33.190918%)" offset="0.367188"/><stop stop-opacity="1" stop-color="rgb(100%, 75.842285%, 33.154297%)" offset="0.375"/><stop stop-opacity="1" stop-color="rgb(100%, 75.6073%, 33.117676%)" offset="0.382812"/><stop stop-opacity="1" stop-color="rgb(100%, 75.370789%, 33.079529%)" offset="0.390625"/><stop stop-opacity="1" stop-color="rgb(100%, 75.134277%, 33.042908%)" offset="0.398438"/><stop stop-opacity="1" stop-color="rgb(100%, 74.899292%, 33.006287%)" offset="0.40625"/><stop stop-opacity="1" stop-color="rgb(100%, 74.662781%, 32.969666%)" offset="0.414062"/><stop stop-opacity="1" stop-color="rgb(100%, 74.427795%, 32.933044%)" offset="0.421875"/><stop stop-opacity="1" stop-color="rgb(100%, 74.191284%, 32.896423%)" offset="0.429688"/><stop stop-opacity="1" stop-color="rgb(100%, 73.954773%, 32.859802%)" offset="0.4375"/><stop stop-opacity="1" stop-color="rgb(100%, 73.719788%, 32.823181%)" offset="0.445313"/><stop stop-opacity="1" stop-color="rgb(100%, 73.483276%, 32.78656%)" offset="0.453125"/><stop stop-opacity="1" stop-color="rgb(100%, 73.248291%, 32.749939%)" offset="0.460938"/><stop stop-opacity="1" stop-color="rgb(100%, 73.01178%, 32.713318%)" offset="0.46875"/><stop stop-opacity="1" stop-color="rgb(100%, 72.775269%, 32.676697%)" offset="0.476562"/><stop stop-opacity="1" stop-color="rgb(100%, 72.540283%, 32.640076%)" offset="0.484375"/><stop stop-opacity="1" stop-color="rgb(100%, 72.303772%, 32.603455%)" offset="0.492188"/><stop stop-opacity="1" stop-color="rgb(100%, 72.068787%, 32.566833%)" offset="0.5"/><stop stop-opacity="1" stop-color="rgb(100%, 71.832275%, 32.530212%)" offset="0.507812"/><stop stop-opacity="1" stop-color="rgb(100%, 71.59729%, 32.492065%)" offset="0.515625"/><stop stop-opacity="1" stop-color="rgb(100%, 71.360779%, 32.455444%)" offset="0.523437"/><stop stop-opacity="1" stop-color="rgb(100%, 71.124268%, 32.418823%)" offset="0.53125"/><stop stop-opacity="1" stop-color="rgb(100%, 70.889282%, 32.382202%)" offset="0.539062"/><stop stop-opacity="1" stop-color="rgb(100%, 70.652771%, 32.345581%)" offset="0.546875"/><stop stop-opacity="1" stop-color="rgb(100%, 70.417786%, 32.30896%)" offset="0.554688"/><stop stop-opacity="1" stop-color="rgb(100%, 70.181274%, 32.272339%)" offset="0.5625"/><stop stop-opacity="1" stop-color="rgb(100%, 69.944763%, 32.235718%)" offset="0.570312"/><stop stop-opacity="1" stop-color="rgb(100%, 69.709778%, 32.199097%)" offset="0.578125"/><stop stop-opacity="1" stop-color="rgb(100%, 69.473267%, 32.162476%)" offset="0.585938"/><stop stop-opacity="1" stop-color="rgb(100%, 69.238281%, 32.125854%)" offset="0.59375"/><stop stop-opacity="1" stop-color="rgb(100%, 69.00177%, 32.089233%)" offset="0.601562"/><stop stop-opacity="1" stop-color="rgb(100%, 68.765259%, 32.052612%)" offset="0.609375"/><stop stop-opacity="1" stop-color="rgb(100%, 68.530273%, 32.015991%)" offset="0.617187"/><stop stop-opacity="1" stop-color="rgb(100%, 68.293762%, 31.97937%)" offset="0.625"/><stop stop-opacity="1" stop-color="rgb(100%, 68.058777%, 31.942749%)" offset="0.632812"/><stop stop-opacity="1" stop-color="rgb(100%, 67.822266%, 31.906128%)" offset="0.640625"/><stop stop-opacity="1" stop-color="rgb(100%, 67.585754%, 31.867981%)" offset="0.648438"/><stop stop-opacity="1" stop-color="rgb(100%, 67.350769%, 31.83136%)" offset="0.65625"/><stop stop-opacity="1" stop-color="rgb(100%, 67.114258%, 31.794739%)" offset="0.664062"/><stop stop-opacity="1" stop-color="rgb(100%, 66.879272%, 31.758118%)" offset="0.671875"/><stop stop-opacity="1" stop-color="rgb(100%, 66.642761%, 31.721497%)" offset="0.679688"/><stop stop-opacity="1" stop-color="rgb(100%, 66.40625%, 31.684875%)" offset="0.6875"/><stop stop-opacity="1" stop-color="rgb(100%, 66.171265%, 31.648254%)" offset="0.695312"/><stop stop-opacity="1" stop-color="rgb(100%, 65.934753%, 31.611633%)" offset="0.703125"/><stop stop-opacity="1" stop-color="rgb(100%, 65.699768%, 31.575012%)" offset="0.710937"/><stop stop-opacity="1" stop-color="rgb(100%, 65.463257%, 31.538391%)" offset="0.71875"/><stop stop-opacity="1" stop-color="rgb(100%, 65.226746%, 31.50177%)" offset="0.726562"/><stop stop-opacity="1" stop-color="rgb(100%, 64.99176%, 31.465149%)" offset="0.734375"/><stop stop-opacity="1" stop-color="rgb(100%, 64.755249%, 31.428528%)" offset="0.742188"/><stop stop-opacity="1" stop-color="rgb(100%, 64.520264%, 31.391907%)" offset="0.75"/><stop stop-opacity="1" stop-color="rgb(100%, 64.283752%, 31.355286%)" offset="0.757812"/><stop stop-opacity="1" stop-color="rgb(100%, 64.047241%, 31.318665%)" offset="0.765625"/><stop stop-opacity="1" stop-color="rgb(100%, 63.812256%, 31.282043%)" offset="0.773438"/><stop stop-opacity="1" stop-color="rgb(100%, 63.575745%, 31.243896%)" offset="0.78125"/><stop stop-opacity="1" stop-color="rgb(100%, 63.340759%, 31.207275%)" offset="0.789062"/><stop stop-opacity="1" stop-color="rgb(100%, 63.104248%, 31.170654%)" offset="0.796875"/><stop stop-opacity="1" stop-color="rgb(100%, 62.867737%, 31.134033%)" offset="0.804687"/><stop stop-opacity="1" stop-color="rgb(100%, 62.632751%, 31.097412%)" offset="0.8125"/><stop stop-opacity="1" stop-color="rgb(100%, 62.39624%, 31.060791%)" offset="0.820312"/><stop stop-opacity="1" stop-color="rgb(100%, 62.161255%, 31.02417%)" offset="0.828125"/><stop stop-opacity="1" stop-color="rgb(100%, 61.924744%, 30.987549%)" offset="0.835938"/><stop stop-opacity="1" stop-color="rgb(100%, 61.689758%, 30.950928%)" offset="0.84375"/><stop stop-opacity="1" stop-color="rgb(100%, 61.453247%, 30.914307%)" offset="0.851562"/><stop stop-opacity="1" stop-color="rgb(100%, 61.216736%, 30.877686%)" offset="0.859375"/><stop stop-opacity="1" stop-color="rgb(100%, 60.98175%, 30.841064%)" offset="0.867188"/><stop stop-opacity="1" stop-color="rgb(100%, 60.745239%, 30.804443%)" offset="0.875"/><stop stop-opacity="1" stop-color="rgb(100%, 60.510254%, 30.767822%)" offset="0.882812"/><stop stop-opacity="1" stop-color="rgb(100%, 60.273743%, 30.731201%)" offset="0.890625"/><stop stop-opacity="1" stop-color="rgb(100%, 60.037231%, 30.69458%)" offset="0.898437"/><stop stop-opacity="1" stop-color="rgb(100%, 59.802246%, 30.657959%)" offset="0.90625"/><stop stop-opacity="1" stop-color="rgb(100%, 59.565735%, 30.619812%)" offset="0.914062"/><stop stop-opacity="1" stop-color="rgb(100%, 59.33075%, 30.583191%)" offset="0.921875"/><stop stop-opacity="1" stop-color="rgb(100%, 59.094238%, 30.54657%)" offset="0.929688"/><stop stop-opacity="1" stop-color="rgb(100%, 58.857727%, 30.509949%)" offset="0.9375"/><stop stop-opacity="1" stop-color="rgb(100%, 58.622742%, 30.473328%)" offset="0.945312"/><stop stop-opacity="1" stop-color="rgb(100%, 58.38623%, 30.436707%)" offset="0.953125"/><stop stop-opacity="1" stop-color="rgb(100%, 58.151245%, 30.400085%)" offset="0.960938"/><stop stop-opacity="1" stop-color="rgb(100%, 57.914734%, 30.363464%)" offset="0.96875"/><stop stop-opacity="1" stop-color="rgb(100%, 57.678223%, 30.326843%)" offset="0.976562"/><stop stop-opacity="1" stop-color="rgb(100%, 57.443237%, 30.290222%)" offset="0.984375"/><stop stop-opacity="1" stop-color="rgb(100%, 57.206726%, 30.253601%)" offset="0.992187"/><stop stop-opacity="1" stop-color="rgb(100%, 56.973267%, 30.21698%)" offset="1"/></linearGradient><clipPath id="d3352d209c"><rect x="0" width="770" y="0" height="271"/></clipPath><clipPath id="825028e6e5"><path d="M 0 0.0078125 L 769.5 0.0078125 L 769.5 270.492188 L 0 270.492188 Z M 0 0.0078125 " clip-rule="nonzero"/></clipPath><clipPath id="4682242dcd"><rect x="0" width="770" y="0" height="271"/></clipPath><clipPath id="be27bbb7ad"><rect x="0" width="770" y="0" height="271"/></clipPath><mask id="982bc2f35f"><g filter="url(#c634793646)"><g transform="matrix(1, 0, 0, 1, 0, -0.000000000000022339)"><g clip-path="url(#be27bbb7ad)"><g clip-path="url(#825028e6e5)"><g transform="matrix(1, 0, 0, 1, 0, -0.000000000000022339)"><g clip-path="url(#4682242dcd)"><g fill="#000000" fill-opacity="1"><g transform="translate(0.011886, 181.653131)"><g><path d="M 68.015625 -2.234375 C 65.117188 -0.390625 61.957031 0.96875 58.53125 1.84375 C 55.101562 2.71875 51.628906 3.15625 48.109375 3.15625 C 48.023438 3.15625 47.914062 3.15625 47.78125 3.15625 C 47.644531 3.15625 47.492188 3.15625 47.328125 3.15625 C 43.722656 3.15625 40.070312 2.609375 36.375 1.515625 C 32.6875 0.421875 29.171875 -1.09375 25.828125 -3.03125 C 21.878906 -5.3125 18.390625 -8.316406 15.359375 -12.046875 C 12.328125 -15.785156 9.929688 -19.765625 8.171875 -23.984375 C 7.023438 -26.890625 6.144531 -29.523438 5.53125 -31.890625 C 4.914062 -34.265625 4.566406 -36.421875 4.484375 -38.359375 C 4.390625 -40.285156 4.320312 -41.863281 4.28125 -43.09375 C 4.238281 -44.332031 4.21875 -45.210938 4.21875 -45.734375 C 4.21875 -51.003906 4.742188 -56.144531 5.796875 -61.15625 C 6.765625 -65.988281 8.367188 -70.710938 10.609375 -75.328125 C 12.847656 -79.941406 15.726562 -84.007812 19.25 -87.53125 C 23.550781 -91.738281 28.359375 -94.875 33.671875 -96.9375 C 38.992188 -99.007812 44.46875 -100.046875 50.09375 -100.046875 C 50.269531 -100.046875 50.488281 -100.046875 50.75 -100.046875 C 51.007812 -100.046875 51.226562 -100.046875 51.40625 -100.046875 C 54.21875 -99.953125 57.050781 -99.617188 59.90625 -99.046875 C 62.757812 -98.484375 65.375 -97.453125 67.75 -95.953125 C 71.882812 -93.671875 74.960938 -90.550781 76.984375 -86.59375 C 78.554688 -83.519531 79.472656 -80.84375 79.734375 -78.5625 C 80.003906 -76.28125 80.140625 -74.609375 80.140625 -73.546875 C 80.140625 -71.003906 79.832031 -68.675781 79.21875 -66.5625 C 78.601562 -63.925781 77.414062 -61.46875 75.65625 -59.1875 C 74.6875 -58.039062 73.585938 -57.050781 72.359375 -56.21875 C 71.128906 -55.382812 69.769531 -54.75 68.28125 -54.3125 C 66.957031 -53.957031 65.503906 -53.78125 63.921875 -53.78125 C 62.429688 -53.78125 60.457031 -54.039062 58 -54.5625 C 55.539062 -55.09375 53.210938 -56.367188 51.015625 -58.390625 C 50.128906 -59.179688 49.507812 -60.171875 49.15625 -61.359375 C 48.8125 -62.546875 48.59375 -63.710938 48.5 -64.859375 C 48.5 -65.117188 48.300781 -65.46875 47.90625 -65.90625 C 47.519531 -66.34375 47.238281 -66.648438 47.0625 -66.828125 C 46.613281 -67.265625 46.101562 -67.570312 45.53125 -67.75 C 44.96875 -67.925781 44.46875 -68.015625 44.03125 -68.015625 C 43.9375 -68.015625 43.84375 -68.015625 43.75 -68.015625 C 43.664062 -68.015625 43.535156 -68.015625 43.359375 -68.015625 C 41.335938 -68.015625 39.625 -67.265625 38.21875 -65.765625 C 36.8125 -64.273438 35.753906 -62.429688 35.046875 -60.234375 C 34.347656 -58.035156 33.914062 -55.925781 33.75 -53.90625 C 33.65625 -53.207031 33.585938 -52.503906 33.546875 -51.796875 C 33.503906 -51.097656 33.484375 -50.394531 33.484375 -49.6875 C 33.484375 -49.34375 33.503906 -48.617188 33.546875 -47.515625 C 33.585938 -46.421875 33.828125 -44.992188 34.265625 -43.234375 C 34.710938 -41.742188 35.351562 -40.296875 36.1875 -38.890625 C 37.019531 -37.484375 38.050781 -36.335938 39.28125 -35.453125 C 40.507812 -34.753906 41.648438 -34.335938 42.703125 -34.203125 C 43.753906 -34.066406 44.546875 -34 45.078125 -34 C 45.515625 -34 45.972656 -34.019531 46.453125 -34.0625 C 46.941406 -34.113281 47.363281 -34.179688 47.71875 -34.265625 C 48.59375 -34.441406 49.425781 -34.640625 50.21875 -34.859375 C 51.007812 -35.078125 51.800781 -35.363281 52.59375 -35.71875 L 53.90625 -36.25 C 54.695312 -36.601562 55.488281 -36.910156 56.28125 -37.171875 C 57.070312 -37.429688 57.90625 -37.609375 58.78125 -37.703125 C 60.28125 -37.878906 61.820312 -37.96875 63.40625 -37.96875 C 64.988281 -37.96875 66.523438 -37.742188 68.015625 -37.296875 C 70.828125 -36.335938 73.265625 -34.710938 75.328125 -32.421875 C 77.390625 -30.140625 78.773438 -27.550781 79.484375 -24.65625 C 79.742188 -23.507812 79.875 -22.273438 79.875 -20.953125 C 79.875 -20.078125 79.765625 -18.867188 79.546875 -17.328125 C 79.328125 -15.796875 78.734375 -14.0625 77.765625 -12.125 C 76.796875 -10.101562 75.429688 -8.257812 73.671875 -6.59375 C 71.921875 -4.925781 70.035156 -3.472656 68.015625 -2.234375 Z M 68.015625 -2.234375 "/></g></g></g><g fill="#000000" fill-opacity="1"><g transform="translate(85.02553, 181.653131)"><g><path d="M 58.78125 0.65625 C 57.46875 1.007812 56.195312 1.226562 54.96875 1.3125 C 53.738281 1.40625 52.769531 1.453125 52.0625 1.453125 C 51.09375 1.453125 49.835938 1.363281 48.296875 1.1875 C 46.765625 1.007812 45.273438 0.632812 43.828125 0.0625 C 42.378906 -0.507812 41.210938 -1.320312 40.328125 -2.375 C 39.628906 -3.164062 39.234375 -4.128906 39.140625 -5.265625 C 35.804688 -2.984375 32.597656 -1.515625 29.515625 -0.859375 C 26.441406 -0.203125 24.03125 0.125 22.28125 0.125 C 20.082031 0.125 17.796875 -0.222656 15.421875 -0.921875 C 13.222656 -1.628906 11.175781 -2.75 9.28125 -4.28125 C 7.394531 -5.820312 5.972656 -7.601562 5.015625 -9.625 C 3.691406 -12.519531 3.03125 -15.660156 3.03125 -19.046875 C 3.03125 -22.429688 3.554688 -25.660156 4.609375 -28.734375 C 5.316406 -30.578125 6.4375 -32.242188 7.96875 -33.734375 C 9.507812 -35.234375 11.203125 -36.378906 13.046875 -37.171875 C 15.859375 -38.398438 18.757812 -39.191406 21.75 -39.546875 C 24.738281 -39.898438 27.726562 -40.382812 30.71875 -41 C 31.507812 -41.164062 32.5625 -41.445312 33.875 -41.84375 C 35.195312 -42.238281 35.988281 -42.789062 36.25 -43.5 C 36.332031 -43.675781 36.375 -43.894531 36.375 -44.15625 C 36.375 -44.6875 36.066406 -45.171875 35.453125 -45.609375 C 34.835938 -46.046875 34.132812 -46.351562 33.34375 -46.53125 C 33 -46.613281 32.628906 -46.675781 32.234375 -46.71875 C 31.835938 -46.769531 31.414062 -46.796875 30.96875 -46.796875 C 30.800781 -46.796875 30.382812 -46.769531 29.71875 -46.71875 C 29.0625 -46.675781 28.25 -46.566406 27.28125 -46.390625 C 26.664062 -46.304688 26.03125 -46.242188 25.375 -46.203125 C 24.71875 -46.160156 24.035156 -46.050781 23.328125 -45.875 L 20.828125 -45.46875 C 20.210938 -45.382812 19.570312 -45.296875 18.90625 -45.203125 C 18.25 -45.117188 17.570312 -45.035156 16.875 -44.953125 C 16.78125 -44.953125 16.644531 -44.953125 16.46875 -44.953125 C 16.300781 -44.953125 16.128906 -44.953125 15.953125 -44.953125 C 14.015625 -44.953125 12.363281 -45.519531 11 -46.65625 C 9.644531 -47.800781 8.742188 -49.078125 8.296875 -50.484375 C 7.859375 -51.972656 7.640625 -53.160156 7.640625 -54.046875 C 7.640625 -55.015625 7.835938 -56.265625 8.234375 -57.796875 C 8.628906 -59.335938 9.707031 -60.898438 11.46875 -62.484375 C 12.957031 -63.890625 14.691406 -64.960938 16.671875 -65.703125 C 18.648438 -66.453125 20.648438 -67.09375 22.671875 -67.625 C 26.890625 -68.582031 30.25 -69.128906 32.75 -69.265625 C 35.257812 -69.398438 36.820312 -69.46875 37.4375 -69.46875 C 41.21875 -69.46875 44.773438 -68.894531 48.109375 -67.75 C 50.660156 -66.957031 53.035156 -65.679688 55.234375 -63.921875 C 57.429688 -62.171875 59.273438 -60.148438 60.765625 -57.859375 C 61.910156 -56.109375 62.789062 -54.15625 63.40625 -52 C 64.019531 -49.84375 64.414062 -47.710938 64.59375 -45.609375 C 64.769531 -44.285156 64.898438 -42.960938 64.984375 -41.640625 C 65.066406 -40.328125 65.109375 -39.015625 65.109375 -37.703125 C 65.109375 -37.171875 65.109375 -36.488281 65.109375 -35.65625 C 65.109375 -34.820312 65.109375 -33.878906 65.109375 -32.828125 C 65.109375 -31.765625 65.109375 -30.707031 65.109375 -29.65625 C 65.109375 -28.601562 65.15625 -27.550781 65.25 -26.5 C 65.425781 -24.125 65.882812 -21.816406 66.625 -19.578125 C 67.375 -17.335938 67.835938 -15.070312 68.015625 -12.78125 C 68.097656 -12.4375 68.140625 -12.109375 68.140625 -11.796875 C 68.140625 -11.484375 68.140625 -11.15625 68.140625 -10.8125 C 68.140625 -9.925781 68.050781 -8.910156 67.875 -7.765625 C 67.707031 -6.628906 67.226562 -5.445312 66.4375 -4.21875 C 65.550781 -2.988281 64.425781 -1.976562 63.0625 -1.1875 C 61.707031 -0.394531 60.28125 0.21875 58.78125 0.65625 Z M 24.25 -14.625 C 25.394531 -14.1875 26.492188 -13.96875 27.546875 -13.96875 C 27.804688 -13.96875 28.066406 -13.96875 28.328125 -13.96875 C 28.597656 -13.96875 28.863281 -14.015625 29.125 -14.109375 C 31.851562 -14.367188 34.359375 -15.242188 36.640625 -16.734375 C 37.609375 -17.441406 38.550781 -18.253906 39.46875 -19.171875 C 40.394531 -20.097656 41.035156 -21.175781 41.390625 -22.40625 C 41.566406 -22.757812 41.65625 -23.085938 41.65625 -23.390625 C 41.65625 -23.703125 41.65625 -24.035156 41.65625 -24.390625 C 41.65625 -25.878906 40.882812 -27.257812 39.34375 -28.53125 C 37.8125 -29.8125 35.59375 -30.453125 32.6875 -30.453125 C 32.601562 -30.453125 32.03125 -30.425781 30.96875 -30.375 C 29.914062 -30.332031 28.554688 -29.914062 26.890625 -29.125 C 24.160156 -27.8125 22.269531 -25.925781 21.21875 -23.46875 C 20.78125 -22.40625 20.5625 -21.4375 20.5625 -20.5625 C 20.5625 -19.863281 20.757812 -18.875 21.15625 -17.59375 C 21.550781 -16.320312 22.582031 -15.332031 24.25 -14.625 Z M 24.25 -14.625 "/></g></g></g><g fill="#000000" fill-opacity="1"><g transform="translate(156.331544, 181.653131)"><g><path d="M 28.859375 26.234375 C 27.285156 26.753906 25.617188 27.015625 23.859375 27.015625 C 23.679688 27.015625 23.039062 26.992188 21.9375 26.953125 C 20.84375 26.910156 19.332031 26.625 17.40625 26.09375 C 15.46875 25.570312 13.6875 24.78125 12.0625 23.71875 C 10.4375 22.664062 9.179688 21.347656 8.296875 19.765625 C 7.066406 17.578125 6.34375 15.1875 6.125 12.59375 C 5.90625 10 5.796875 7.425781 5.796875 4.875 C 5.796875 3.820312 5.816406 1.847656 5.859375 -1.046875 C 5.910156 -3.953125 5.957031 -7.269531 6 -11 C 6.039062 -14.738281 6.0625 -18.28125 6.0625 -21.625 L 6.0625 -32.15625 C 6.0625 -33.5625 5.90625 -35.78125 5.59375 -38.8125 C 5.289062 -41.84375 5.050781 -44.898438 4.875 -47.984375 C 4.789062 -49.472656 4.722656 -50.921875 4.671875 -52.328125 C 4.628906 -53.734375 4.609375 -55.007812 4.609375 -56.15625 C 4.609375 -56.769531 4.628906 -57.953125 4.671875 -59.703125 C 4.722656 -61.460938 5.007812 -63.003906 5.53125 -64.328125 C 6.5 -66.703125 8.191406 -68.457031 10.609375 -69.59375 C 13.023438 -70.738281 15.679688 -71.421875 18.578125 -71.640625 C 21.484375 -71.859375 24.125 -71.617188 26.5 -70.921875 C 27.8125 -70.566406 29.082031 -70.035156 30.3125 -69.328125 C 31.539062 -68.628906 32.550781 -67.753906 33.34375 -66.703125 C 34.3125 -65.472656 35.054688 -64.109375 35.578125 -62.609375 C 36.109375 -61.117188 36.550781 -59.625 36.90625 -58.125 C 38.664062 -59.882812 40.753906 -61.332031 43.171875 -62.46875 C 45.585938 -63.613281 47.757812 -64.320312 49.6875 -64.59375 C 50.65625 -64.769531 51.515625 -64.898438 52.265625 -64.984375 C 53.015625 -65.066406 53.695312 -65.109375 54.3125 -65.109375 C 55.71875 -65.109375 57.40625 -64.910156 59.375 -64.515625 C 61.351562 -64.117188 63.351562 -63.175781 65.375 -61.6875 C 68.363281 -59.582031 70.890625 -56.945312 72.953125 -53.78125 C 75.023438 -50.613281 76.539062 -47.273438 77.5 -43.765625 C 78.382812 -40.335938 78.828125 -36.734375 78.828125 -32.953125 C 78.828125 -32.160156 78.78125 -31.101562 78.6875 -29.78125 C 78.601562 -28.46875 78.472656 -26.929688 78.296875 -25.171875 C 77.859375 -21.484375 76.273438 -17.488281 73.546875 -13.1875 C 70.117188 -7.644531 65.332031 -3.6875 59.1875 -1.3125 C 56.113281 -0.0820312 53.585938 0.570312 51.609375 0.65625 C 49.628906 0.75 48.332031 0.796875 47.71875 0.796875 C 44.8125 0.796875 42.128906 0.488281 39.671875 -0.125 C 39.585938 2.945312 39.4375 6 39.21875 9.03125 C 39 12.0625 38.40625 14.984375 37.4375 17.796875 C 36.113281 22.191406 33.253906 25.003906 28.859375 26.234375 Z M 37.4375 -30.3125 C 38.132812 -26.976562 39.671875 -24.472656 42.046875 -22.796875 C 43.097656 -21.921875 44.0625 -21.394531 44.9375 -21.21875 C 45.820312 -21.039062 46.441406 -20.953125 46.796875 -20.953125 C 47.765625 -20.953125 48.773438 -21.21875 49.828125 -21.75 C 51.316406 -22.445312 52.566406 -23.5 53.578125 -24.90625 C 54.585938 -26.3125 55.359375 -27.851562 55.890625 -29.53125 C 56.410156 -31.195312 56.691406 -32.535156 56.734375 -33.546875 C 56.785156 -34.554688 56.8125 -35.101562 56.8125 -35.1875 C 56.8125 -36.863281 56.546875 -38.40625 56.015625 -39.8125 C 55.671875 -40.863281 55.234375 -41.914062 54.703125 -42.96875 C 54.171875 -44.019531 53.46875 -44.898438 52.59375 -45.609375 C 51.1875 -46.921875 49.648438 -47.578125 47.984375 -47.578125 C 46.578125 -47.578125 45.257812 -47.140625 44.03125 -46.265625 C 41.394531 -44.597656 39.570312 -42.554688 38.5625 -40.140625 C 37.550781 -37.722656 37.046875 -35.546875 37.046875 -33.609375 C 37.046875 -32.472656 37.175781 -31.375 37.4375 -30.3125 Z M 37.4375 -30.3125 "/></g></g></g><g fill="#000000" fill-opacity="1"><g transform="translate(238.181895, 181.653131)"><g><path d="M 61.15625 35.984375 C 57.207031 37.742188 53.453125 38.863281 49.890625 39.34375 C 46.328125 39.832031 43.140625 40.078125 40.328125 40.078125 C 39.453125 40.078125 38.617188 40.050781 37.828125 40 C 37.035156 39.957031 36.203125 39.894531 35.328125 39.8125 C 32.691406 39.539062 30.03125 39.140625 27.34375 38.609375 C 24.664062 38.085938 22.097656 37.300781 19.640625 36.25 C 17.617188 35.28125 15.660156 34.09375 13.765625 32.6875 C 11.878906 31.28125 10.410156 29.566406 9.359375 27.546875 C 8.128906 25.347656 7.488281 23.632812 7.4375 22.40625 C 7.394531 21.175781 7.375 20.519531 7.375 20.4375 C 7.375 17.175781 8.363281 14.117188 10.34375 11.265625 C 12.320312 8.410156 15.113281 6.457031 18.71875 5.40625 C 19.070312 5.3125 19.398438 5.242188 19.703125 5.203125 C 20.015625 5.160156 20.34375 5.140625 20.6875 5.140625 C 20.957031 5.140625 21.375 5.160156 21.9375 5.203125 C 22.507812 5.242188 23.238281 5.398438 24.125 5.671875 C 25.96875 6.367188 27.722656 7.222656 29.390625 8.234375 C 31.066406 9.242188 32.867188 10.015625 34.796875 10.546875 C 35.503906 10.722656 36.207031 10.851562 36.90625 10.9375 C 37.613281 11.03125 38.273438 11.078125 38.890625 11.078125 C 39.847656 11.078125 41.226562 10.921875 43.03125 10.609375 C 44.832031 10.304688 46.613281 9.363281 48.375 7.78125 C 49.78125 6.550781 50.832031 5.007812 51.53125 3.15625 C 52.238281 1.3125 52.8125 -0.484375 53.25 -2.234375 C 53.957031 -5.046875 54.3125 -7.769531 54.3125 -10.40625 C 54.3125 -10.582031 54.285156 -11.460938 54.234375 -13.046875 C 54.191406 -14.628906 54.082031 -16.867188 53.90625 -19.765625 C 51.882812 -16.691406 49.425781 -14.097656 46.53125 -11.984375 C 43.632812 -9.878906 40.78125 -8.429688 37.96875 -7.640625 C 35.238281 -6.847656 32.597656 -6.453125 30.046875 -6.453125 C 29.171875 -6.453125 27.632812 -6.5625 25.4375 -6.78125 C 23.238281 -7.007812 20.601562 -8.132812 17.53125 -10.15625 C 14.1875 -12.34375 11.375 -15.304688 9.09375 -19.046875 C 6.8125 -22.785156 5.316406 -26.675781 4.609375 -30.71875 C 4.265625 -32.5625 4.003906 -34.425781 3.828125 -36.3125 C 3.648438 -38.195312 3.5625 -40.109375 3.5625 -42.046875 C 3.5625 -42.304688 3.582031 -43.515625 3.625 -45.671875 C 3.664062 -47.828125 3.773438 -50.925781 3.953125 -54.96875 C 3.953125 -56.195312 3.992188 -57.445312 4.078125 -58.71875 C 4.171875 -60 4.304688 -61.253906 4.484375 -62.484375 C 4.660156 -63.441406 4.945312 -64.425781 5.34375 -65.4375 C 5.738281 -66.445312 6.285156 -67.304688 6.984375 -68.015625 C 7.691406 -68.804688 8.550781 -69.421875 9.5625 -69.859375 C 10.570312 -70.296875 11.554688 -70.648438 12.515625 -70.921875 C 14.535156 -71.359375 16.535156 -71.617188 18.515625 -71.703125 C 20.492188 -71.796875 22.492188 -71.84375 24.515625 -71.84375 C 27.679688 -71.84375 30.097656 -70.523438 31.765625 -67.890625 C 32.472656 -66.648438 32.957031 -65.367188 33.21875 -64.046875 C 33.476562 -62.734375 33.65625 -61.375 33.75 -59.96875 C 33.832031 -59.351562 33.875 -58.71875 33.875 -58.0625 C 33.875 -57.40625 33.875 -56.722656 33.875 -56.015625 C 33.875 -54.085938 33.765625 -51.828125 33.546875 -49.234375 C 33.328125 -46.640625 33.171875 -43.671875 33.078125 -40.328125 C 33.078125 -39.097656 33.097656 -37.472656 33.140625 -35.453125 C 33.191406 -33.429688 33.414062 -31.519531 33.8125 -29.71875 C 34.207031 -27.914062 34.890625 -26.617188 35.859375 -25.828125 C 36.378906 -25.304688 37.082031 -25.046875 37.96875 -25.046875 C 38.132812 -25.046875 38.566406 -25.085938 39.265625 -25.171875 C 39.972656 -25.265625 40.769531 -25.53125 41.65625 -25.96875 C 42.625 -26.5 43.4375 -27.203125 44.09375 -28.078125 C 44.75 -28.953125 45.296875 -29.875 45.734375 -30.84375 C 46.617188 -32.601562 47.257812 -34.46875 47.65625 -36.4375 C 48.050781 -38.414062 48.378906 -40.414062 48.640625 -42.4375 C 48.992188 -44.988281 49.210938 -47.207031 49.296875 -49.09375 C 49.390625 -50.988281 49.4375 -52.550781 49.4375 -53.78125 C 49.4375 -54.476562 49.410156 -55.132812 49.359375 -55.75 C 49.316406 -56.363281 49.296875 -56.984375 49.296875 -57.609375 C 49.296875 -57.773438 49.296875 -57.96875 49.296875 -58.1875 C 49.296875 -58.414062 49.296875 -58.613281 49.296875 -58.78125 C 49.296875 -59.75 49.382812 -60.804688 49.5625 -61.953125 C 49.738281 -63.097656 50.175781 -64.238281 50.875 -65.375 C 52.457031 -67.488281 54.785156 -68.984375 57.859375 -69.859375 C 60.941406 -70.734375 63.84375 -71.171875 66.5625 -71.171875 C 66.738281 -71.171875 67.421875 -71.148438 68.609375 -71.109375 C 69.796875 -71.066406 71.222656 -70.78125 72.890625 -70.25 C 76.492188 -69.019531 79.085938 -66.738281 80.671875 -63.40625 C 82.078125 -60.414062 82.910156 -57.269531 83.171875 -53.96875 C 83.429688 -50.675781 83.648438 -47.363281 83.828125 -44.03125 C 84.179688 -35.851562 84.46875 -29.300781 84.6875 -24.375 C 84.90625 -19.457031 85.015625 -16.125 85.015625 -14.375 C 85.015625 -11.113281 84.882812 -7.878906 84.625 -4.671875 C 84.363281 -1.472656 83.925781 1.707031 83.3125 4.875 C 82.425781 9.625 80.84375 14.191406 78.5625 18.578125 C 76.28125 22.972656 73.425781 26.84375 70 30.1875 C 68.757812 31.414062 67.367188 32.515625 65.828125 33.484375 C 64.296875 34.453125 62.738281 35.285156 61.15625 35.984375 Z M 61.15625 35.984375 "/></g></g></g><g fill="#000000" fill-opacity="1"><g transform="translate(327.545055, 181.653131)"><g/></g></g><g fill="#000000" fill-opacity="1"><g transform="translate(360.496065, 181.653131)"><g><path d="M 61.421875 -2.765625 C 58.703125 -1.097656 55.78125 0.148438 52.65625 0.984375 C 49.539062 1.816406 46.398438 2.28125 43.234375 2.375 C 43.054688 2.375 42.878906 2.375 42.703125 2.375 C 42.523438 2.375 42.351562 2.375 42.1875 2.375 C 39.375 2.375 36.492188 2.066406 33.546875 1.453125 C 30.597656 0.835938 27.632812 -0.0390625 24.65625 -1.1875 C 21.84375 -2.15625 19.140625 -3.363281 16.546875 -4.8125 C 13.953125 -6.257812 11.6875 -8.039062 9.75 -10.15625 C 7.207031 -12.96875 5.253906 -16.0625 3.890625 -19.4375 C 2.523438 -22.820312 1.84375 -26.007812 1.84375 -29 C 1.84375 -29.4375 1.84375 -29.875 1.84375 -30.3125 C 1.84375 -30.75 1.890625 -31.144531 1.984375 -31.5 C 2.328125 -34.3125 3.289062 -36.90625 4.875 -39.28125 C 6.457031 -41.65625 8.4375 -43.585938 10.8125 -45.078125 C 13.1875 -46.578125 15.773438 -47.367188 18.578125 -47.453125 C 18.671875 -47.453125 18.757812 -47.453125 18.84375 -47.453125 C 18.9375 -47.453125 19.023438 -47.453125 19.109375 -47.453125 C 20.515625 -47.453125 21.941406 -47.097656 23.390625 -46.390625 C 24.847656 -45.691406 26.054688 -44.726562 27.015625 -43.5 C 28.515625 -41.476562 29.722656 -39.300781 30.640625 -36.96875 C 31.566406 -34.644531 32.910156 -32.601562 34.671875 -30.84375 C 35.898438 -29.695312 37.347656 -29.125 39.015625 -29.125 C 39.546875 -29.125 40.535156 -29.300781 41.984375 -29.65625 C 43.429688 -30.007812 44.726562 -31.195312 45.875 -33.21875 C 46.925781 -35.0625 47.648438 -37.054688 48.046875 -39.203125 C 48.441406 -41.359375 48.640625 -43.492188 48.640625 -45.609375 C 48.640625 -46.046875 48.660156 -46.503906 48.703125 -46.984375 C 48.742188 -47.472656 48.765625 -47.9375 48.765625 -48.375 C 48.765625 -50.925781 48.546875 -53.671875 48.109375 -56.609375 C 47.671875 -59.554688 47.144531 -62.695312 46.53125 -66.03125 C 44.945312 -65.769531 43.628906 -65.617188 42.578125 -65.578125 C 41.523438 -65.535156 40.734375 -65.515625 40.203125 -65.515625 C 39.671875 -65.515625 39.140625 -65.535156 38.609375 -65.578125 C 38.085938 -65.617188 37.566406 -65.640625 37.046875 -65.640625 C 35.015625 -65.734375 32.921875 -66 30.765625 -66.4375 C 28.617188 -66.875 26.753906 -67.707031 25.171875 -68.9375 C 23.679688 -70.164062 22.628906 -71.59375 22.015625 -73.21875 C 21.398438 -74.84375 21.066406 -76.25 21.015625 -77.4375 C 20.972656 -78.625 20.953125 -79.175781 20.953125 -79.09375 C 20.953125 -80.84375 21.21875 -82.640625 21.75 -84.484375 C 22.28125 -86.335938 22.984375 -88.050781 23.859375 -89.625 C 25.796875 -93.40625 29.046875 -95.78125 33.609375 -96.75 C 34.492188 -96.925781 36.007812 -97.125 38.15625 -97.34375 C 40.3125 -97.5625 42.660156 -97.757812 45.203125 -97.9375 C 47.753906 -98.113281 50.082031 -98.242188 52.1875 -98.328125 C 54.300781 -98.421875 55.796875 -98.46875 56.671875 -98.46875 C 57.554688 -98.46875 58.566406 -98.441406 59.703125 -98.390625 C 60.847656 -98.347656 61.816406 -98.285156 62.609375 -98.203125 C 65.859375 -97.765625 68.492188 -96.398438 70.515625 -94.109375 C 72.804688 -91.566406 74.390625 -88.582031 75.265625 -85.15625 C 76.140625 -81.726562 76.84375 -78.34375 77.375 -75 C 78.863281 -66.5625 79.65625 -58.171875 79.75 -49.828125 C 79.75 -49.210938 79.769531 -48.570312 79.8125 -47.90625 C 79.851562 -47.25 79.875 -46.570312 79.875 -45.875 C 79.875 -43.238281 79.71875 -40.25 79.40625 -36.90625 C 79.101562 -33.570312 78.425781 -29.96875 77.375 -26.09375 C 76.5 -23.019531 75.332031 -19.988281 73.875 -17 C 72.425781 -14.007812 70.648438 -11.285156 68.546875 -8.828125 C 66.609375 -6.546875 64.234375 -4.523438 61.421875 -2.765625 Z M 61.421875 -2.765625 "/></g></g></g><g fill="#000000" fill-opacity="1"><g transform="translate(445.509733, 181.653131)"><g><path d="M 45.46875 1.71875 C 44.332031 1.894531 43.191406 2.023438 42.046875 2.109375 C 40.898438 2.191406 39.757812 2.234375 38.625 2.234375 C 38.1875 2.234375 37.148438 2.210938 35.515625 2.171875 C 33.890625 2.128906 31.71875 1.890625 29 1.453125 C 25.570312 0.921875 22.1875 -0.265625 18.84375 -2.109375 C 15.507812 -3.953125 12.832031 -6.28125 10.8125 -9.09375 C 8.4375 -12.4375 6.742188 -16.191406 5.734375 -20.359375 C 4.722656 -24.535156 4.128906 -28.734375 3.953125 -32.953125 C 3.867188 -34.179688 3.800781 -35.390625 3.75 -36.578125 C 3.707031 -37.765625 3.6875 -38.972656 3.6875 -40.203125 C 3.6875 -40.816406 3.707031 -42.023438 3.75 -43.828125 C 3.800781 -45.628906 4.046875 -48.023438 4.484375 -51.015625 C 4.742188 -53.035156 5.09375 -55.03125 5.53125 -57 C 5.96875 -58.976562 6.671875 -60.894531 7.640625 -62.75 C 8.253906 -63.976562 9.066406 -65.140625 10.078125 -66.234375 C 11.085938 -67.335938 12.253906 -68.109375 13.578125 -68.546875 C 15.066406 -69.160156 16.425781 -69.507812 17.65625 -69.59375 C 18.894531 -69.6875 19.90625 -69.734375 20.6875 -69.734375 C 21.132812 -69.734375 21.578125 -69.707031 22.015625 -69.65625 C 22.453125 -69.613281 22.847656 -69.59375 23.203125 -69.59375 C 26.359375 -69.59375 29.171875 -68.890625 31.640625 -67.484375 C 32.953125 -66.609375 34.023438 -65.441406 34.859375 -63.984375 C 35.691406 -62.535156 36.195312 -61.023438 36.375 -59.453125 C 36.46875 -59.003906 36.515625 -58.539062 36.515625 -58.0625 C 36.515625 -57.582031 36.515625 -57.117188 36.515625 -56.671875 C 36.515625 -54.742188 36.25 -51.9375 35.71875 -48.25 C 35.457031 -46.3125 35.171875 -44.394531 34.859375 -42.5 C 34.554688 -40.613281 34.40625 -38.707031 34.40625 -36.78125 C 34.40625 -35.28125 34.445312 -33.78125 34.53125 -32.28125 C 34.625 -30.789062 35.066406 -29.429688 35.859375 -28.203125 C 36.734375 -27.066406 37.914062 -26.5 39.40625 -26.5 C 39.582031 -26.5 39.738281 -26.5 39.875 -26.5 C 40.007812 -26.5 40.117188 -26.5 40.203125 -26.5 C 40.898438 -26.5 41.753906 -26.582031 42.765625 -26.75 C 43.773438 -26.925781 44.632812 -27.367188 45.34375 -28.078125 C 46.21875 -28.773438 46.832031 -29.648438 47.1875 -30.703125 C 47.539062 -31.765625 47.757812 -32.820312 47.84375 -33.875 C 47.84375 -34.3125 47.84375 -34.75 47.84375 -35.1875 C 47.84375 -35.632812 47.84375 -36.03125 47.84375 -36.375 C 47.84375 -38.925781 47.710938 -42.3125 47.453125 -46.53125 C 47.191406 -50.75 47.0625 -53.164062 47.0625 -53.78125 C 47.0625 -55.539062 47.191406 -57.34375 47.453125 -59.1875 C 47.628906 -60.414062 47.976562 -61.625 48.5 -62.8125 C 49.03125 -64 49.78125 -64.988281 50.75 -65.78125 C 51.976562 -66.738281 53.269531 -67.414062 54.625 -67.8125 C 55.988281 -68.207031 57.175781 -68.445312 58.1875 -68.53125 C 59.207031 -68.625 59.71875 -68.671875 59.71875 -68.671875 C 61.207031 -68.671875 62.695312 -68.472656 64.1875 -68.078125 C 65.6875 -67.679688 67.003906 -67.132812 68.140625 -66.4375 C 69.722656 -65.46875 71.039062 -64.191406 72.09375 -62.609375 C 72.976562 -61.203125 73.640625 -59.6875 74.078125 -58.0625 C 74.515625 -56.4375 74.820312 -54.832031 75 -53.25 C 75.351562 -50.875 75.550781 -48.960938 75.59375 -47.515625 C 75.632812 -46.066406 75.65625 -45.125 75.65625 -44.6875 C 75.65625 -43.800781 75.632812 -42.875 75.59375 -41.90625 C 75.550781 -40.945312 75.484375 -39.984375 75.390625 -39.015625 C 75.128906 -34.796875 74.582031 -30.578125 73.75 -26.359375 C 72.914062 -22.140625 71.578125 -18.097656 69.734375 -14.234375 C 67.535156 -9.398438 64.28125 -5.578125 59.96875 -2.765625 C 57.863281 -1.273438 55.554688 -0.242188 53.046875 0.328125 C 50.546875 0.898438 48.019531 1.363281 45.46875 1.71875 Z M 45.46875 1.71875 "/></g></g></g><g fill="#000000" fill-opacity="1"><g transform="translate(524.592186, 181.653131)"><g><path d="M 69.328125 3.5625 C 68.890625 3.644531 68.425781 3.6875 67.9375 3.6875 C 67.457031 3.6875 67 3.6875 66.5625 3.6875 C 65.15625 3.6875 63.503906 3.578125 61.609375 3.359375 C 59.722656 3.140625 57.90625 2.285156 56.15625 0.796875 C 55.363281 0.0859375 54.703125 -0.742188 54.171875 -1.703125 C 53.648438 -2.671875 53.210938 -3.640625 52.859375 -4.609375 C 48.023438 -1.535156 42.882812 0.703125 37.4375 2.109375 C 36.46875 2.285156 35.476562 2.4375 34.46875 2.5625 C 33.457031 2.695312 32.425781 2.765625 31.375 2.765625 C 29.96875 2.765625 27.96875 2.585938 25.375 2.234375 C 22.78125 1.890625 20.078125 0.796875 17.265625 -1.046875 C 15.242188 -2.453125 13.351562 -4.078125 11.59375 -5.921875 C 9.84375 -7.773438 8.394531 -9.84375 7.25 -12.125 C 6.019531 -14.40625 5.117188 -16.882812 4.546875 -19.5625 C 3.972656 -22.25 3.597656 -24.910156 3.421875 -27.546875 C 3.335938 -28.253906 3.296875 -28.9375 3.296875 -29.59375 C 3.296875 -30.25 3.296875 -30.882812 3.296875 -31.5 C 3.296875 -33.695312 3.425781 -35.867188 3.6875 -38.015625 C 3.957031 -40.171875 4.398438 -42.304688 5.015625 -44.421875 C 6.242188 -48.816406 8.265625 -52.816406 11.078125 -56.421875 C 12.921875 -58.703125 15.179688 -60.566406 17.859375 -62.015625 C 20.535156 -63.460938 23.019531 -64.410156 25.3125 -64.859375 C 26.445312 -65.023438 27.5 -65.148438 28.46875 -65.234375 C 29.4375 -65.328125 30.316406 -65.375 31.109375 -65.375 C 32.515625 -65.375 34.289062 -65.21875 36.4375 -64.90625 C 38.59375 -64.601562 40.898438 -63.660156 43.359375 -62.078125 C 43.535156 -65.859375 43.800781 -69.613281 44.15625 -73.34375 C 44.507812 -77.082031 45.210938 -80.796875 46.265625 -84.484375 C 46.878906 -86.515625 47.710938 -88.515625 48.765625 -90.484375 C 49.828125 -92.460938 51.234375 -94.066406 52.984375 -95.296875 C 53.953125 -95.910156 54.921875 -96.4375 55.890625 -96.875 C 56.859375 -97.320312 57.910156 -97.632812 59.046875 -97.8125 C 60.453125 -98.15625 62.078125 -98.328125 63.921875 -98.328125 C 64.367188 -98.328125 65.269531 -98.28125 66.625 -98.1875 C 67.988281 -98.101562 69.679688 -97.710938 71.703125 -97.015625 C 73.203125 -96.578125 74.675781 -95.960938 76.125 -95.171875 C 77.570312 -94.378906 78.820312 -93.367188 79.875 -92.140625 C 80.84375 -91.085938 81.523438 -89.878906 81.921875 -88.515625 C 82.316406 -87.148438 82.554688 -85.765625 82.640625 -84.359375 C 82.734375 -84.003906 82.78125 -83.585938 82.78125 -83.109375 C 82.78125 -82.628906 82.78125 -82.164062 82.78125 -81.71875 C 82.78125 -81.101562 82.734375 -80.242188 82.640625 -79.140625 C 82.554688 -78.046875 82.425781 -76.753906 82.25 -75.265625 C 82.164062 -74.117188 81.878906 -71.921875 81.390625 -68.671875 C 80.910156 -65.421875 80.40625 -62.039062 79.875 -58.53125 C 79.351562 -54.75 78.957031 -51.40625 78.6875 -48.5 C 78.425781 -45.601562 78.296875 -43.71875 78.296875 -42.84375 C 78.296875 -42.570312 78.296875 -42.347656 78.296875 -42.171875 C 78.296875 -42.003906 78.296875 -41.832031 78.296875 -41.65625 L 78.296875 -37.703125 C 78.296875 -37.171875 78.296875 -36.617188 78.296875 -36.046875 C 78.296875 -35.472656 78.296875 -34.925781 78.296875 -34.40625 C 78.296875 -30.007812 78.5625 -25.613281 79.09375 -21.21875 C 79.175781 -20.519531 79.257812 -19.773438 79.34375 -18.984375 C 79.4375 -18.191406 79.523438 -17.441406 79.609375 -16.734375 L 80.015625 -13.96875 C 80.191406 -13.269531 80.300781 -12.523438 80.34375 -11.734375 C 80.382812 -10.941406 80.445312 -10.191406 80.53125 -9.484375 C 80.625 -9.046875 80.671875 -8.609375 80.671875 -8.171875 C 80.671875 -7.734375 80.671875 -7.296875 80.671875 -6.859375 C 80.671875 -6.410156 80.644531 -5.722656 80.59375 -4.796875 C 80.550781 -3.878906 80.222656 -2.851562 79.609375 -1.71875 C 78.992188 -0.488281 77.941406 0.609375 76.453125 1.578125 C 75.398438 2.191406 74.253906 2.628906 73.015625 2.890625 C 71.785156 3.160156 70.554688 3.382812 69.328125 3.5625 Z M 24.65625 -36.640625 C 24.382812 -35.585938 24.25 -34.535156 24.25 -33.484375 C 24.25 -32.160156 24.535156 -30.707031 25.109375 -29.125 C 25.679688 -27.550781 26.710938 -26.101562 28.203125 -24.78125 C 29.703125 -23.375 31.265625 -22.453125 32.890625 -22.015625 C 34.515625 -21.578125 35.941406 -21.359375 37.171875 -21.359375 C 37.867188 -21.359375 38.941406 -21.507812 40.390625 -21.8125 C 41.847656 -22.125 43.390625 -22.847656 45.015625 -23.984375 C 46.640625 -25.128906 48.023438 -27.019531 49.171875 -29.65625 C 49.429688 -30.363281 49.648438 -31.085938 49.828125 -31.828125 C 50.003906 -32.578125 50.09375 -33.300781 50.09375 -34 C 50.09375 -34.351562 50.046875 -35.054688 49.953125 -36.109375 C 49.867188 -37.171875 49.382812 -38.445312 48.5 -39.9375 C 47.976562 -40.90625 47.300781 -41.804688 46.46875 -42.640625 C 45.632812 -43.472656 44.734375 -44.242188 43.765625 -44.953125 C 43.671875 -45.035156 43.515625 -45.1875 43.296875 -45.40625 C 43.078125 -45.625 42.925781 -45.734375 42.84375 -45.734375 C 41.164062 -46.441406 39.539062 -46.796875 37.96875 -46.796875 C 37.695312 -46.796875 37.007812 -46.75 35.90625 -46.65625 C 34.8125 -46.570312 33.390625 -46.132812 31.640625 -45.34375 C 27.941406 -43.5 25.613281 -40.597656 24.65625 -36.640625 Z M 24.65625 -36.640625 "/></g></g></g><g fill="#000000" fill-opacity="1"><g transform="translate(612.373716, 181.653131)"><g><path d="M 53.78125 37.96875 C 51.582031 38.664062 49.335938 39.191406 47.046875 39.546875 C 44.765625 39.898438 42.484375 40.078125 40.203125 40.078125 C 39.941406 40.078125 38.492188 40.050781 35.859375 40 C 33.222656 39.957031 29.53125 39.453125 24.78125 38.484375 C 22.144531 37.867188 19.53125 37.007812 16.9375 35.90625 C 14.34375 34.8125 12.082031 33.34375 10.15625 31.5 C 7.507812 28.863281 5.878906 25.960938 5.265625 22.796875 C 5.179688 22.359375 5.140625 21.921875 5.140625 21.484375 C 5.140625 21.046875 5.140625 20.648438 5.140625 20.296875 C 5.140625 17.398438 5.84375 14.804688 7.25 12.515625 C 9.351562 8.921875 12.472656 6.550781 16.609375 5.40625 C 17.578125 5.144531 18.410156 5.015625 19.109375 5.015625 C 20.253906 5.015625 21.222656 5.1875 22.015625 5.53125 C 23.242188 5.96875 24.40625 6.492188 25.5 7.109375 C 26.601562 7.734375 27.722656 8.394531 28.859375 9.09375 C 30.003906 9.707031 31.210938 10.210938 32.484375 10.609375 C 33.765625 11.003906 35.019531 11.242188 36.25 11.328125 C 37.476562 11.328125 38.660156 11.238281 39.796875 11.0625 C 40.941406 10.894531 42.046875 10.59375 43.109375 10.15625 C 45.210938 9.09375 46.925781 7.460938 48.25 5.265625 C 49.914062 2.546875 50.96875 -0.28125 51.40625 -3.21875 C 51.84375 -6.164062 52.0625 -9.003906 52.0625 -11.734375 C 52.0625 -11.992188 52.0625 -12.234375 52.0625 -12.453125 C 52.0625 -12.671875 52.0625 -12.914062 52.0625 -13.1875 C 50.3125 -11.25 48.3125 -9.507812 46.0625 -7.96875 C 43.820312 -6.4375 41.429688 -5.316406 38.890625 -4.609375 C 36.335938 -3.910156 34.335938 -3.535156 32.890625 -3.484375 C 31.441406 -3.441406 30.539062 -3.421875 30.1875 -3.421875 C 29.039062 -3.421875 27.894531 -3.488281 26.75 -3.625 C 25.613281 -3.757812 24.472656 -4 23.328125 -4.34375 C 20.867188 -5.050781 18.519531 -6.082031 16.28125 -7.4375 C 14.039062 -8.800781 12.082031 -10.453125 10.40625 -12.390625 C 8.039062 -15.117188 6.238281 -18.28125 5 -21.875 C 3.769531 -25.476562 3.113281 -29.128906 3.03125 -32.828125 C 3.03125 -32.992188 3.03125 -33.207031 3.03125 -33.46875 C 3.03125 -33.738281 3.03125 -33.960938 3.03125 -34.140625 C 3.03125 -37.035156 3.289062 -40 3.8125 -43.03125 C 4.34375 -46.0625 5.359375 -49.070312 6.859375 -52.0625 C 7.910156 -54.257812 9.179688 -56.320312 10.671875 -58.25 C 12.171875 -60.1875 13.929688 -61.90625 15.953125 -63.40625 C 18.328125 -65.070312 20.941406 -66.390625 23.796875 -67.359375 C 26.648438 -68.328125 29.523438 -68.8125 32.421875 -68.8125 C 32.597656 -68.8125 32.75 -68.8125 32.875 -68.8125 C 33.007812 -68.8125 33.125 -68.8125 33.21875 -68.8125 C 35.769531 -68.8125 38.335938 -68.4375 40.921875 -67.6875 C 43.515625 -66.9375 46 -65.90625 48.375 -64.59375 C 49.164062 -66.082031 50.304688 -67.242188 51.796875 -68.078125 C 53.296875 -68.910156 54.835938 -69.550781 56.421875 -70 C 58.703125 -70.519531 60.566406 -70.820312 62.015625 -70.90625 C 63.460938 -71 64.410156 -71.046875 64.859375 -71.046875 C 66.703125 -71.046875 68.546875 -70.78125 70.390625 -70.25 C 71.617188 -69.90625 72.757812 -69.445312 73.8125 -68.875 C 74.863281 -68.300781 75.785156 -67.53125 76.578125 -66.5625 C 77.722656 -65.25 78.554688 -63.753906 79.078125 -62.078125 C 79.609375 -60.410156 80.050781 -58.742188 80.40625 -57.078125 C 80.84375 -54.785156 81.125 -52.519531 81.25 -50.28125 C 81.382812 -48.039062 81.539062 -45.78125 81.71875 -43.5 C 82.070312 -35.5 82.359375 -29.035156 82.578125 -24.109375 C 82.796875 -19.191406 82.90625 -15.859375 82.90625 -14.109375 C 82.90625 -7.773438 82.378906 -1.578125 81.328125 4.484375 C 80.710938 7.554688 79.875 10.585938 78.8125 13.578125 C 77.757812 16.566406 76.359375 19.378906 74.609375 22.015625 C 73.640625 23.503906 72.582031 24.929688 71.4375 26.296875 C 70.300781 27.660156 69.117188 28.957031 67.890625 30.1875 C 65.867188 32.03125 63.648438 33.585938 61.234375 34.859375 C 58.816406 36.140625 56.332031 37.175781 53.78125 37.96875 Z M 23.328125 -36.515625 C 23.585938 -34.671875 24.179688 -33.046875 25.109375 -31.640625 C 26.035156 -30.234375 27.203125 -29.046875 28.609375 -28.078125 C 29.921875 -27.203125 31.144531 -26.628906 32.28125 -26.359375 C 33.425781 -26.097656 34.351562 -25.96875 35.0625 -25.96875 C 36.03125 -25.96875 37.039062 -26.097656 38.09375 -26.359375 C 40.726562 -27.066406 42.878906 -28.363281 44.546875 -30.25 C 46.222656 -32.132812 47.257812 -34.304688 47.65625 -36.765625 C 48.050781 -39.234375 47.585938 -41.609375 46.265625 -43.890625 C 44.679688 -46.960938 42.835938 -48.8125 40.734375 -49.4375 C 38.441406 -50.132812 36.679688 -50.484375 35.453125 -50.484375 C 34.222656 -50.484375 32.640625 -50.175781 30.703125 -49.5625 C 28.773438 -48.945312 27.019531 -47.582031 25.4375 -45.46875 C 23.945312 -43.28125 23.203125 -40.953125 23.203125 -38.484375 C 23.203125 -38.140625 23.203125 -37.8125 23.203125 -37.5 C 23.203125 -37.195312 23.242188 -36.867188 23.328125 -36.515625 Z M 23.328125 -36.515625 "/></g></g></g><g fill="#000000" fill-opacity="1"><g transform="translate(699.759805, 181.653131)"><g><path d="M 40.328125 1.3125 C 39.710938 1.3125 39.097656 1.332031 38.484375 1.375 C 37.867188 1.425781 37.253906 1.453125 36.640625 1.453125 C 34.441406 1.453125 31.894531 1.316406 29 1.046875 C 26.101562 0.785156 23.113281 -0.046875 20.03125 -1.453125 C 15.019531 -3.554688 11.066406 -6.894531 8.171875 -11.46875 C 6.765625 -13.75 5.734375 -16.1875 5.078125 -18.78125 C 4.421875 -21.375 3.957031 -23.988281 3.6875 -26.625 C 3.425781 -28.738281 3.296875 -30.847656 3.296875 -32.953125 C 3.296875 -34.796875 3.445312 -37.1875 3.75 -40.125 C 4.0625 -43.070312 5.007812 -46.394531 6.59375 -50.09375 C 7.820312 -52.90625 9.378906 -55.539062 11.265625 -58 C 13.160156 -60.457031 15.378906 -62.566406 17.921875 -64.328125 C 22.054688 -67.140625 26.234375 -69.050781 30.453125 -70.0625 C 34.671875 -71.070312 38.359375 -71.578125 41.515625 -71.578125 C 43.359375 -71.578125 45.207031 -71.441406 47.0625 -71.171875 C 50.664062 -70.734375 53.984375 -69.394531 57.015625 -67.15625 C 60.046875 -64.914062 62.347656 -62.210938 63.921875 -59.046875 C 64.984375 -56.765625 65.578125 -54.785156 65.703125 -53.109375 C 65.835938 -51.441406 65.90625 -50.257812 65.90625 -49.5625 C 65.90625 -48.6875 65.859375 -47.828125 65.765625 -46.984375 C 65.679688 -46.148438 65.550781 -45.296875 65.375 -44.421875 C 64.757812 -41.253906 63.3125 -38.3125 61.03125 -35.59375 C 59.363281 -33.65625 57.40625 -32.023438 55.15625 -30.703125 C 52.914062 -29.390625 50.613281 -28.46875 48.25 -27.9375 C 46.132812 -27.414062 43.976562 -27.15625 41.78125 -27.15625 C 40.375 -27.15625 38.414062 -27.328125 35.90625 -27.671875 C 33.40625 -28.023438 30.53125 -28.863281 27.28125 -30.1875 C 27.457031 -29.039062 27.722656 -27.914062 28.078125 -26.8125 C 28.429688 -25.71875 28.957031 -24.734375 29.65625 -23.859375 C 30.800781 -22.453125 32.472656 -21.53125 34.671875 -21.09375 C 35.722656 -20.820312 36.863281 -20.6875 38.09375 -20.6875 C 38.53125 -20.6875 39.253906 -20.726562 40.265625 -20.8125 C 41.273438 -20.90625 42.53125 -21.128906 44.03125 -21.484375 C 45.78125 -21.921875 47.488281 -22.425781 49.15625 -23 C 50.832031 -23.570312 52.414062 -24.253906 53.90625 -25.046875 C 55.226562 -25.660156 56.375 -25.96875 57.34375 -25.96875 C 57.863281 -25.96875 58.257812 -25.921875 58.53125 -25.828125 C 59.757812 -25.566406 60.851562 -24.992188 61.8125 -24.109375 C 62.78125 -23.234375 63.570312 -22.226562 64.1875 -21.09375 C 65.25 -19.25 65.800781 -17.753906 65.84375 -16.609375 C 65.882812 -15.460938 65.90625 -14.800781 65.90625 -14.625 C 65.90625 -11.988281 65.09375 -9.441406 63.46875 -6.984375 C 61.84375 -4.523438 59.445312 -2.722656 56.28125 -1.578125 C 53.738281 -0.703125 51.125 -0.046875 48.4375 0.390625 C 45.757812 0.828125 43.054688 1.132812 40.328125 1.3125 Z M 27.8125 -38.75 C 29.476562 -37.875 30.992188 -37.367188 32.359375 -37.234375 C 33.722656 -37.109375 34.753906 -37.046875 35.453125 -37.046875 C 35.984375 -37.046875 36.535156 -37.066406 37.109375 -37.109375 C 37.679688 -37.148438 38.226562 -37.210938 38.75 -37.296875 C 39.976562 -37.472656 41.164062 -37.867188 42.3125 -38.484375 C 43.457031 -39.097656 44.289062 -39.9375 44.8125 -41 C 44.988281 -41.4375 45.117188 -41.851562 45.203125 -42.25 C 45.296875 -42.644531 45.34375 -43.0625 45.34375 -43.5 C 45.34375 -43.675781 45.320312 -43.875 45.28125 -44.09375 C 45.238281 -44.3125 45.21875 -44.507812 45.21875 -44.6875 C 45.125 -45.125 44.75 -45.757812 44.09375 -46.59375 C 43.4375 -47.425781 42.882812 -47.976562 42.4375 -48.25 C 41.5625 -49.039062 40.421875 -49.4375 39.015625 -49.4375 C 37.429688 -49.34375 35.847656 -48.769531 34.265625 -47.71875 C 31.015625 -45.78125 28.863281 -42.789062 27.8125 -38.75 Z M 27.8125 -38.75 "/></g></g></g></g></g></g></g></g></g></mask><clipPath id="ae0872a33d"><path d="M 0 0.0078125 L 769.5 0.0078125 L 769.5 270.492188 L 0 270.492188 Z M 0 0.0078125 " clip-rule="nonzero"/></clipPath><clipPath id="430f8a8141"><rect x="0" width="770" y="0" height="271"/></clipPath><clipPath id="6c2daa5006"><rect x="0" width="770" y="0" height="271"/></clipPath><clipPath id="6e8fdbc1f4"><rect x="0" width="770" y="0" height="271"/></clipPath></defs><g clip-path="url(#ea6bfe0fcb)"><g transform="matrix(1, 0, 0, 1, 0, -0.000000000000022339)"><g clip-path="url(#6e8fdbc1f4)"><g clip-path="url(#fb46e000c7)"><g transform="matrix(1, 0, 0, 1, 0, -0.000000000000022339)"><g clip-path="url(#6c2daa5006)"><g clip-path="url(#a77d844092)"><g mask="url(#982bc2f35f)"><g transform="matrix(1, 0, 0, 1, 0, -0.000000000000022339)"><g clip-path="url(#430f8a8141)"><g clip-path="url(#ae0872a33d)"><path fill="url(#9266cc00f4)" d="M 0 0.0078125 L 0 270.492188 L 769.5 270.492188 L 769.5 0.0078125 Z M 0 0.0078125 " fill-rule="nonzero"/></g></g></g></g></g></g></g></g></g></g></g></svg>